<?xml version="1.0" standalone="no"?>
<!DOCTYPE svg PUBLIC "-//W3C//DTD SVG 20010904//EN"
 "http://www.w3.org/TR/2001/REC-SVG-20010904/DTD/svg10.dtd">
<svg version="1.0" xmlns="http://www.w3.org/2000/svg"
 width="324.000000pt" height="324.000000pt" viewBox="0 0 324.000000 324.000000"
 preserveAspectRatio="xMidYMid meet">
<metadata>
Created by potrace 1.14, written by Peter Selinger 2001-2017
</metadata>
<g transform="translate(0.000000,324.000000) scale(0.100000,-0.100000)"
fill="#000000" stroke="none">
<path d="M1205 3173 c-335 -223 -518 -597 -450 -917 40 -187 155 -330 388
-481 42 -28 77 -54 77 -59 1 -27 -222 54 -308 113 -121 82 -223 229 -263 376
-17 66 -22 118 -26 293 -3 116 -8 212 -12 212 -9 0 -86 -203 -105 -275 -24
-98 -38 -225 -31 -289 25 -213 110 -375 278 -532 78 -73 244 -179 337 -215 30
-12 75 -30 100 -40 92 -36 308 -68 583 -85 l107 -6 0 -96 c0 -77 4 -104 21
-139 21 -43 92 -103 123 -103 9 0 34 -7 56 -16 54 -22 58 -30 234 -498 80
-214 151 -395 157 -403 9 -10 67 -13 270 -13 l259 0 -23 27 c-50 61 -105 104
-174 135 l-73 33 0 120 c0 231 -11 791 -16 874 l-6 83 -96 -102 c-106 -113
-194 -188 -200 -171 -2 7 26 43 62 82 94 99 123 143 146 217 37 120 17 242
-58 358 -86 132 -302 305 -495 397 -400 192 -425 206 -491 268 -118 110 -172
267 -148 429 12 82 78 228 157 351 66 103 61 108 -43 46 -90 -54 -210 -155
-267 -226 -87 -108 -155 -274 -155 -376 1 -149 91 -331 243 -492 27 -29 47
-57 45 -63 -2 -6 -43 13 -93 42 -127 75 -240 188 -291 292 -38 78 -39 83 -42
203 -3 105 0 135 18 195 30 100 97 228 185 358 93 137 94 143 20 93z"/>
<path d="M1996 2894 c-8 -305 -16 -370 -63 -487 -20 -50 -32 -92 -27 -97 5 -4
90 -54 189 -110 304 -173 442 -275 530 -392 69 -91 84 -126 112 -261 14 -67
33 -141 43 -164 19 -43 68 -83 102 -83 27 0 40 34 29 78 -6 20 -15 156 -20
302 -11 267 -15 300 -45 358 -16 31 -18 31 -64 24 -121 -18 -161 -3 -203 81
-17 33 -23 37 -59 37 -42 0 -80 29 -80 61 0 24 -15 32 -115 63 -82 24 -126 48
-114 60 3 3 24 -2 48 -10 59 -20 156 -29 165 -16 4 6 0 38 -9 71 -20 76 -19
117 4 166 22 50 93 115 125 115 42 0 51 -24 54 -149 2 -64 7 -120 12 -124 11
-12 115 87 136 130 17 34 19 65 19 318 l0 280 -47 3 -48 3 0 -80 0 -81 -35 0
-34 0 -3 78 -3 77 -45 0 -45 0 -3 -77 -3 -78 -34 0 -34 0 -3 78 -3 77 -47 3
-47 3 -3 -78 c-3 -70 -5 -78 -23 -78 -18 0 -20 8 -23 78 l-3 77 -54 0 -54 0
-3 -77 c-3 -70 -5 -78 -23 -78 -18 0 -21 8 -25 75 l-5 75 -56 3 -56 3 -7 -257z"/>
<path d="M2478 2641 c-38 -30 -58 -81 -58 -149 0 -101 24 -142 85 -142 38 0
46 34 43 179 -3 119 -4 126 -24 129 -11 2 -32 -6 -46 -17z"/>
<path d="M2710 2417 c-30 -24 -72 -60 -94 -80 -38 -36 -38 -37 -31 -94 9 -82
40 -142 81 -159 47 -20 72 -18 150 12 82 31 94 39 94 68 0 33 -54 112 -94 138
-35 23 -36 24 -36 91 0 37 -3 67 -7 67 -5 0 -33 -19 -63 -43z"/>
<path d="M2480 2287 c-35 -17 -39 -63 -8 -78 16 -7 32 -7 51 0 23 9 27 16 27
51 0 35 -3 40 -22 40 -13 -1 -34 -6 -48 -13z"/>
<path d="M684 1544 c-11 -62 9 -106 103 -232 l23 -29 -68 -45 c-371 -247 -535
-547 -507 -925 6 -82 11 -99 31 -120 21 -21 31 -23 134 -23 l110 0 0 -85 0
-85 660 0 661 0 -16 29 c-15 30 -79 87 -125 112 -19 10 -102 15 -347 19 -177
3 -325 8 -329 12 -11 12 24 45 70 68 59 29 151 104 186 152 77 106 75 217 -7
375 -36 70 -44 96 -36 104 18 18 58 -13 97 -74 52 -82 66 -129 66 -215 0 -99
-21 -184 -65 -272 -19 -38 -35 -72 -35 -75 0 -14 21 -11 663 119 98 20 186 36
196 36 10 0 29 8 41 18 l22 18 -57 159 c-93 263 -85 250 -165 274 -49 15 -81
33 -118 66 -66 59 -90 100 -106 176 l-13 63 -124 18 c-68 10 -157 24 -196 33
-40 8 -109 18 -152 21 -75 6 -84 5 -135 -21 -61 -31 -217 -149 -355 -270 -194
-169 -274 -311 -298 -529 -9 -79 -29 -104 -60 -73 -15 15 -18 36 -17 140 0
152 22 231 94 341 94 144 209 249 468 426 36 25 66 50 66 55 0 6 -46 42 -102
80 -55 39 -133 98 -171 133 -38 34 -72 62 -75 62 -3 0 -8 -16 -12 -36z"/>
</g>
</svg>
